<svg width="70" height="70" viewBox="0 0 70 70" fill="none" xmlns="http://www.w3.org/2000/svg">
<path d="M12.9106 59.5022L7.9953 4.375H62.0047L57.0828 59.4934L34.9672 65.625L12.9106 59.5022Z" fill="#E44F26"/>
<path d="M35 60.9394L52.8719 55.9847L57.0762 8.88342H35V60.9394Z" fill="#F1662A"/>
<path d="M35 29.3278H26.0531L25.4363 22.4044H35V15.6428H18.0469L18.2088 17.4584L19.8691 36.0894H35V29.3278ZM35 46.8869L34.9694 46.8956L27.44 44.8635L26.9588 39.4713H20.1709L21.1181 50.085L34.9694 53.9306L35 53.9219V46.8869Z" fill="#EBEBEB"/>
<path d="M34.976 29.3278V36.0894H43.3016L42.5185 44.8591L34.976 46.8934V53.9284L48.8381 50.085L48.9388 48.9431L50.5269 31.1434L50.6931 29.3278H34.976ZM34.976 15.6428V22.4044H51.3078L51.4435 20.8863L51.7519 17.4584L51.9138 15.6428H34.976Z" fill="white"/>
</svg>
