<svg width="70" height="70" viewBox="0 0 70 70" fill="none" xmlns="http://www.w3.org/2000/svg">
<g clip-path="url(#clip0_7_67)">
<path d="M68.6798 31.8812L38.1172 1.32021C36.3582 -0.439907 33.5035 -0.439907 31.7423 1.32021L25.3958 7.6667L33.4466 15.7175C35.3175 15.0853 37.4628 15.5094 38.9542 17.0008C40.4526 18.5017 40.8737 20.6654 40.2262 22.5422L47.985 30.3013C49.8621 29.6546 52.028 30.073 53.5273 31.5747C55.6227 33.6692 55.6227 37.064 53.5273 39.1599C51.4314 41.256 48.0367 41.256 45.9397 39.1599C44.3636 37.5821 43.9742 35.2675 44.7721 33.3258L37.5364 26.0901L37.5356 45.1315C38.0601 45.3908 38.5392 45.7334 38.9542 46.1459C41.0495 48.2404 41.0495 51.6355 38.9542 53.733C36.8583 55.8281 33.4619 55.8281 31.369 53.733C29.2737 51.6355 29.2737 48.2407 31.369 46.1462C31.8712 45.6438 32.4679 45.2459 33.1248 44.9756V25.7568C32.4669 25.4882 31.8699 25.0902 31.369 24.5862C29.7814 23.0008 29.3997 20.6714 30.2132 18.722L22.277 10.785L1.3207 31.7399C-0.440234 33.5016 -0.440234 36.3566 1.3207 38.117L31.8839 68.6785C33.6435 70.4389 36.4976 70.4389 38.2594 68.6785L68.6796 38.2589C70.44 36.498 70.44 33.6413 68.6796 31.8812" fill="#DE4C36"/>
</g>
<defs>
<clipPath id="clip0_7_67">
<rect width="70" height="70" fill="white"/>
</clipPath>
</defs>
</svg>
