<svg width="94" height="70" viewBox="0 0 94 70" fill="none" xmlns="http://www.w3.org/2000/svg">
<g clip-path="url(#clip0_7_69)">
<path d="M80.3141 40.2915C77.0671 40.3083 74.2449 41.0903 71.882 42.2464C71.0147 40.5292 70.1477 38.9995 69.995 37.8773C69.8247 36.5684 69.6209 35.7692 69.8247 34.2052C70.0289 32.6411 70.9469 30.4139 70.9297 30.244C70.913 30.0741 70.7256 29.2749 68.8556 29.2582C66.9857 29.241 65.3706 29.6151 65.1835 30.108C64.9965 30.6009 64.6396 31.7231 64.4015 32.8788C64.0785 34.5792 60.6616 40.6481 58.7067 43.8273C58.0775 42.5866 57.5335 41.4983 57.4143 40.6313C57.2444 39.3225 57.0402 38.5233 57.2444 36.9592C57.4486 35.3952 58.3666 33.1683 58.3494 32.998C58.3323 32.8282 58.1453 32.029 56.2753 32.0122C54.405 31.9951 52.7899 32.3691 52.6032 32.8621C52.4162 33.3553 52.212 34.5111 51.8212 35.6333C51.43 36.7554 46.8909 46.8879 45.7009 49.5056C45.22 50.5652 44.7156 51.6139 44.1879 52.6509C44.1879 52.6509 44.1708 52.702 44.1197 52.7869C43.954 53.1121 43.7841 53.4351 43.6101 53.756V53.7727C43.3549 54.2321 43.0829 54.6568 42.9469 54.6568C42.8448 54.6568 42.6578 53.4329 42.9808 51.7668C43.6607 48.2478 45.2758 42.7736 45.2591 42.5866C45.2591 42.4845 45.565 41.5326 44.2051 41.0393C42.8787 40.5464 42.4029 41.3623 42.2837 41.3623C42.1649 41.3623 42.0795 41.6514 42.0795 41.6514C42.0795 41.6514 43.559 35.4973 39.2577 35.4973C36.5718 35.4973 32.8654 38.4384 31.0294 41.0903C28.9422 42.2262 26.8568 43.3652 24.7731 44.5076C23.7705 45.0687 22.7333 45.6298 21.7642 46.1566C21.6961 46.0888 21.6282 46.0035 21.5601 45.9356C16.3578 40.3765 6.73574 36.4492 7.1437 28.9862C7.29683 26.266 8.23162 19.1256 25.6233 10.4555C39.9376 3.40008 51.3283 5.35497 53.3003 9.69023C56.1222 15.8787 47.1972 27.3711 32.4064 29.0368C26.7623 29.6661 23.8041 27.4899 23.0563 26.674C22.2743 25.8238 22.1551 25.7727 21.8659 25.943C21.3902 26.1982 21.696 26.9631 21.8659 27.405C22.3082 28.5607 24.1271 30.6009 27.2042 31.6042C29.9243 32.488 36.5375 32.9813 44.5449 29.8871C53.5041 26.4188 60.5085 16.7796 58.4515 8.7044C56.3942 0.510023 42.7938 -2.193 29.9243 2.37997C22.2743 5.10049 13.9778 9.38435 8.01068 14.9606C0.921361 21.5906 -0.200827 27.3539 0.258184 29.7682C1.90756 38.3363 13.723 43.9126 18.4491 48.0437C18.211 48.1797 17.9897 48.2989 17.803 48.401C15.4398 49.5738 6.42949 54.2828 4.18548 59.2641C1.63558 64.9082 4.59381 68.9547 6.5487 69.4983C12.6179 71.1816 18.857 68.1555 22.2061 63.1571C25.5552 58.159 25.1472 51.6647 23.6003 48.6897C23.5831 48.6558 23.5664 48.6215 23.5321 48.5876C24.1442 48.2307 24.7731 47.8566 25.3853 47.4997C26.5103 46.8346 27.6497 46.194 28.8025 45.5784C28.2243 47.1596 27.7992 49.0466 27.5954 51.7668C27.3402 54.9631 28.649 59.111 30.3662 60.7428C31.1315 61.4574 32.0324 61.4742 32.6106 61.4742C34.6165 61.4742 35.5178 59.808 36.5207 57.836C37.7446 55.4221 38.8497 52.617 38.8497 52.617C38.8497 52.617 37.4727 60.1992 41.2129 60.1992C42.5728 60.1992 43.9499 58.431 44.562 57.5301V57.5469C44.562 57.5469 44.5959 57.4959 44.6641 57.377C44.8001 57.1561 44.885 57.0197 44.885 57.0197V56.9862C45.429 56.0339 46.6532 53.8748 48.4721 50.2877C50.8182 45.6637 53.0794 39.8836 53.0794 39.8836C53.0794 39.8836 53.2836 41.2945 53.9803 43.6406C54.3886 45.0176 55.2381 46.5306 55.9184 47.9926C55.3744 48.7579 55.0343 49.1826 55.0343 49.1826L55.0514 49.1998C54.6092 49.7776 54.1334 50.4065 53.6062 51.019C51.753 53.2288 49.5433 55.7623 49.237 56.4929C48.8797 57.3599 48.9651 57.9891 49.6454 58.4992C50.1383 58.8733 51.022 58.9239 51.9233 58.8733C53.5894 58.754 54.7623 58.3461 55.3402 58.0912C56.2414 57.7682 57.2954 57.2749 58.2813 56.5439C60.1005 55.2008 61.2052 53.2798 61.1035 50.7471C61.0525 49.3529 60.5934 47.9587 60.0324 46.6495C60.2026 46.4118 60.3554 46.1737 60.5256 45.9356C63.3985 41.7364 65.6258 37.1291 65.6258 37.1291C65.6258 37.1291 65.83 38.5401 66.5267 40.8865C66.8668 42.0765 67.5639 43.3686 68.1757 44.6264C65.4727 46.8198 63.8065 49.3697 63.2115 51.0358C62.1407 54.13 62.9734 55.5238 64.5546 55.8468C65.2685 56 66.2886 55.6598 67.0367 55.3368C67.9887 55.0309 69.1108 54.5041 70.182 53.7217C72.0013 52.3789 73.752 50.5086 73.6499 47.9759C73.5989 46.8198 73.293 45.6804 72.8679 44.5754C75.1629 43.6238 78.1212 43.0966 81.895 43.5385C89.9876 44.4904 91.5856 49.5396 91.2793 51.6651C90.9734 53.7899 89.2734 54.946 88.7127 55.3029C88.1512 55.6602 87.9645 55.779 88.0156 56.0339C88.0834 56.4079 88.3554 56.3912 88.8315 56.323C89.4947 56.2041 93.0818 54.6058 93.2346 50.6956C93.4898 45.6976 88.7294 40.2405 80.3141 40.2915ZM17.888 61.3382C15.2017 64.2622 11.4618 65.3672 9.84673 64.4324C8.11277 63.4291 8.79272 59.111 12.0907 56.0171C14.0967 54.13 16.6808 52.3786 18.398 51.3078C18.7889 51.0697 19.3671 50.7299 20.0642 50.3048C20.183 50.2366 20.2512 50.2027 20.2512 50.2027L20.6592 49.9475C21.8659 54.3677 20.7102 58.2611 17.888 61.3382ZM37.4388 48.0437C36.5036 50.3219 34.5487 56.1531 33.3587 55.8301C32.3386 55.5581 31.7093 51.1379 33.1545 46.7687C33.8855 44.5754 35.4325 41.9573 36.3337 40.9376C37.7957 39.3053 39.4108 38.761 39.8016 39.4246C40.2949 40.2915 38.0166 46.6156 37.4388 48.0437ZM53.5723 55.7619C53.1811 55.9661 52.8074 56.1021 52.6371 56C52.5183 55.9318 52.8074 55.6598 52.8074 55.6598C52.8074 55.6598 54.8305 53.484 55.6293 52.4978C56.0887 51.9199 56.6322 51.24 57.2105 50.4747V50.6956C57.2105 53.2969 54.6941 55.048 53.5719 55.7619H53.5723ZM66.0166 52.9229C65.7275 52.7187 65.7786 52.0388 66.7476 49.9136C67.1217 49.0805 68.0054 47.6867 69.5188 46.3436C69.6887 46.8876 69.8079 47.4148 69.7908 47.9077C69.7737 51.1889 67.4279 52.4128 66.0166 52.9229Z" fill="#CD6799"/>
</g>
<defs>
<clipPath id="clip0_7_69">
<rect width="93.34" height="70" fill="white"/>
</clipPath>
</defs>
</svg>
