<svg width="70" height="70" viewBox="0 0 70 70" fill="none" xmlns="http://www.w3.org/2000/svg">
<path d="M57.5539 22.6653C56.809 22.3783 56.0577 22.1124 55.3008 21.8679C55.428 21.2846 55.545 20.7083 55.6489 20.1422C57.3546 10.8454 56.2395 3.35571 52.4308 0.889745C48.7791 -1.47429 42.8069 0.990753 36.7754 6.88457C36.181 7.46647 35.5998 8.06514 35.0323 8.68001C34.6524 8.27114 34.2657 7.87021 33.8726 7.47742C27.5513 1.17558 21.2152 -1.48043 17.4106 0.992595C13.7621 3.364 12.6818 10.4048 14.2174 19.2156C14.3702 20.0882 14.5427 20.9564 14.7347 21.8191C13.8379 22.1053 12.9724 22.4098 12.1442 22.734C4.73293 25.6354 0 30.182 0 34.8981C0 39.7689 5.08102 44.6545 12.8002 47.6169C13.426 47.8561 14.057 48.0777 14.6926 48.2816C14.4862 49.2108 14.3029 50.1464 14.143 51.0871C12.679 59.745 13.8223 66.6195 17.4609 68.9758C21.219 71.4092 27.5267 68.9083 33.6684 62.88C34.1664 62.3899 34.6534 61.8859 35.1291 61.3685C35.7436 62.0343 36.3746 62.6807 37.0212 63.307C42.9707 69.055 48.8463 71.3761 52.4814 69.0133C56.236 66.5728 57.4563 59.1878 55.872 50.2029C55.7472 49.499 55.6073 48.7986 55.4523 48.1023C55.8953 47.9549 56.33 47.8033 56.7539 47.6455C64.7787 44.6603 70 39.834 70 34.8981C70 30.1648 65.1142 25.5875 57.5539 22.6653ZM55.8135 44.4586C55.4307 44.6008 55.038 44.738 54.6377 44.8716C53.7518 41.7225 52.5563 38.3741 51.0932 34.9144C52.4893 31.5372 53.6389 28.2315 54.4999 25.103C55.2161 25.3357 55.9109 25.581 56.5808 25.8398C63.0585 28.3439 67.0097 32.0456 67.0097 34.8981C67.0097 37.9363 62.7424 41.8806 55.8135 44.4586ZM52.9386 50.855C53.6391 54.8278 53.7389 58.4199 53.2749 61.2282C52.8582 63.7516 52.0198 65.4338 50.983 66.1077C48.7771 67.5414 44.0595 65.6778 38.9717 60.7619C38.3702 60.1796 37.7833 59.5786 37.2116 58.9597C39.1841 56.5376 41.1553 53.722 43.0793 50.5947C46.4633 50.2576 49.6604 49.7062 52.5596 48.9537C52.6993 49.584 52.8256 50.218 52.9386 50.855ZM23.8645 65.8599C21.7093 66.7143 19.9927 66.7389 18.955 66.0671C16.747 64.6373 15.829 59.1175 17.0811 51.7134C17.2299 50.8385 17.4003 49.9684 17.5921 49.1041C20.4594 49.8164 23.6332 50.3285 27.0252 50.6373C28.9622 53.6974 30.9903 56.51 33.0343 58.9729C32.5999 59.4448 32.1552 59.9046 31.7007 60.352C28.9846 63.0175 26.2631 64.9087 23.8645 65.8599ZM13.7676 44.4399C10.3543 43.1298 7.53539 41.4274 5.60328 39.5697C3.86695 37.9004 2.99059 36.2428 2.99059 34.8981C2.99059 32.0361 6.79055 28.3856 13.1286 25.9046C13.8977 25.6037 14.7027 25.3197 15.5381 25.0533C16.4142 28.2524 17.5632 31.5973 18.9498 34.9797C17.5451 38.4122 16.3797 41.8106 15.4952 45.0475C14.915 44.8609 14.3389 44.6583 13.7676 44.4399ZM17.1522 18.5706C15.8367 11.0219 16.7103 5.32768 18.909 3.89852C21.2507 2.37632 26.4291 4.54663 31.8872 9.98821C32.2431 10.3439 32.5933 10.7067 32.9375 11.0766C30.9036 13.5287 28.8941 16.3204 26.9743 19.3624C23.6821 19.705 20.5308 20.2552 17.6334 20.9923C17.4549 20.1899 17.2945 19.3824 17.1522 18.5709V18.5706ZM47.3471 26.9423C46.6627 25.6151 45.953 24.3045 45.2184 23.0116C47.4518 23.3287 49.5917 23.7497 51.6012 24.2642C50.998 26.4354 50.2461 28.7052 49.3609 31.0324C48.714 29.6541 48.0425 28.2905 47.3471 26.9423ZM35.0336 13.4762C36.4129 15.1541 37.7943 17.0272 39.153 19.0597C36.3967 18.9135 33.6359 18.9129 30.8796 19.0578C32.2396 17.0441 33.6328 15.1734 35.0336 13.4762ZM22.6412 26.9654C21.9544 28.3027 21.2955 29.6578 20.665 31.0297C19.7944 28.7108 19.0493 26.4305 18.4409 24.2286C20.4381 23.7269 22.5679 23.3168 24.7871 23.0054C24.0443 24.3063 23.3288 25.6265 22.6412 26.9651V26.9654ZM24.8508 47.0296C22.558 46.7422 20.3962 46.3532 18.3996 45.8651C19.0176 43.6238 19.7791 41.2951 20.6686 38.9265C21.3016 40.2993 21.9632 41.6553 22.6529 42.9932C23.3622 44.3687 24.0967 45.7159 24.8508 47.0296ZM35.1162 56.5563C33.6987 54.8395 32.285 52.94 30.9045 50.8971C32.2448 50.956 33.6112 50.9861 35 50.9861C36.4268 50.9861 37.8372 50.9502 39.2254 50.8808C37.8623 52.9605 36.4861 54.8628 35.1162 56.5563ZM49.3891 38.8055C50.3248 41.2002 51.1134 43.5167 51.7396 45.7195C49.7101 46.2396 47.5188 46.6584 45.2099 46.9694C45.9497 45.6525 46.6662 44.3191 47.3588 42.9702C48.063 41.599 48.7399 40.2105 49.3891 38.8055ZM44.7686 41.2926C43.7082 43.3608 42.5883 45.3898 41.4105 47.3762C39.277 47.5459 37.1388 47.6301 35 47.6289C32.8215 47.6289 30.7027 47.5527 28.6623 47.4041C27.4537 45.4223 26.3124 43.3898 25.2407 41.3111H25.241C24.1744 39.2433 23.1781 37.1309 22.2543 34.9782C23.1757 32.8251 24.169 30.7116 25.232 28.6423L25.2317 28.6426C26.2943 26.5728 27.4265 24.549 28.6259 22.5756C30.7076 22.3988 32.8423 22.3067 34.9997 22.3067H35C37.1673 22.3067 39.3047 22.3997 41.3859 22.5778C42.5731 24.5482 43.6981 26.565 44.7587 28.6245C45.8252 30.6892 46.8316 32.7924 47.7764 34.9306C46.8414 37.0907 45.8381 39.2127 44.7686 41.2926ZM50.9373 3.79843C53.2812 5.31632 54.1928 11.4373 52.7201 19.4643C52.6261 19.9764 52.5205 20.498 52.4057 21.027C49.5012 20.2742 46.3477 19.7145 43.0459 19.3667C41.1225 16.2913 39.1295 13.4953 37.1287 11.0747C37.6531 10.5072 38.1899 9.95443 38.7387 9.41685C43.9067 4.36733 48.7367 2.37356 50.9373 3.79843ZM35 27.8797C38.4521 27.8797 41.2508 31.022 41.2508 34.8981C41.2508 38.7742 38.4521 41.9165 35 41.9165C31.5479 41.9165 28.7492 38.7742 28.7492 34.8981C28.7492 31.022 31.5479 27.8797 35 27.8797Z" fill="#00D8FF"/>
</svg>
