<svg width="256" height="154" viewBox="0 0 256 154" fill="none" xmlns="http://www.w3.org/2000/svg">
<path d="M128 0C93.867 0 72.533 17.067 64 51.2C76.8 34.133 91.733 27.733 108.8 32C118.537 34.434 125.497 41.499 133.201 49.318C145.751 62.057 160.275 76.8 192 76.8C226.133 76.8 247.467 59.733 256 25.6C243.2 42.667 228.267 49.067 211.2 44.8C201.463 42.366 194.503 35.301 186.799 27.482C174.249 14.743 159.725 0 128 0ZM64 76.8C29.867 76.8 8.533 93.867 0 128C12.8 110.933 27.733 104.533 44.8 108.8C54.537 111.234 61.497 118.299 69.201 126.118C81.751 138.857 96.275 153.6 128 153.6C162.133 153.6 183.467 136.533 192 102.4C179.2 119.467 164.267 125.867 147.2 121.6C137.463 119.166 130.503 112.101 122.799 104.282C110.249 91.543 95.725 76.8 64 76.8Z" fill="url(#paint0_linear_202_6)"/>
<defs>
<linearGradient id="paint0_linear_202_6" x1="-7.11168" y1="49.152" x2="213.986" y2="176.633" gradientUnits="userSpaceOnUse">
<stop stop-color="#2298BD"/>
<stop offset="1" stop-color="#0ED7B5"/>
</linearGradient>
</defs>
</svg>
