<svg width="70" height="70" viewBox="0 0 70 70" fill="none" xmlns="http://www.w3.org/2000/svg">
<path d="M12.9106 59.5022L7.9975 4.375H62.0025L57.0828 59.4934L34.9672 65.625L12.9106 59.5022Z" fill="#1572B6"/>
<path d="M35 60.9394L52.8719 55.9847L57.0762 8.88342H35V60.9394Z" fill="#33A9DC"/>
<path d="M35 28.8553H43.9469L44.5637 21.9319H35V15.1703H51.9531L51.7913 16.9837L50.1309 35.6169H35V28.8553Z" fill="white"/>
<path d="M35.0416 46.4144L35.0109 46.4231L27.4816 44.3888L27.0003 38.9966H20.2125L21.1597 49.6125L35.0087 53.4581L35.0416 53.4494V46.4144Z" fill="#EBEBEB"/>
<path d="M43.3715 35.3303L42.5578 44.3844L35.0175 46.4188V53.4538L48.8775 49.6125L48.9803 48.4706L50.155 35.3303H43.3715Z" fill="white"/>
<path d="M35.0241 15.1703V21.9319H18.6922L18.5566 20.4115L18.2481 16.9837L18.0862 15.1703H35.0241ZM35 28.8553V35.6169H27.5647L27.4291 34.0965L27.1228 30.6687L26.9609 28.8553H35Z" fill="#EBEBEB"/>
</svg>
