<svg width="79" height="79" viewBox="0 0 79 79" fill="none" xmlns="http://www.w3.org/2000/svg">
<path d="M0 0H79V79H0V0Z" fill="#F7DF1E"/>
<path d="M20.772 66.0181L26.8174 62.3594C27.9839 64.4273 29.0448 66.177 31.5898 66.177C34.0292 66.177 35.5676 65.2229 35.5676 61.5111V36.2687H42.9914V61.616C42.9914 69.3052 38.4841 72.8053 31.908 72.8053C25.9691 72.8053 22.5218 69.7296 20.7717 66.0175L20.772 66.0181ZM47.0238 65.2226L53.0685 61.7228C54.6599 64.3215 56.7281 66.2304 60.3868 66.2304C63.4632 66.2304 65.4246 64.6924 65.4246 62.5711C65.4246 60.0258 63.4095 59.1241 60.0156 57.6398L58.16 56.8436C52.8038 54.564 49.2509 51.7003 49.2509 45.6549C49.2509 40.0867 53.4932 35.8441 60.1221 35.8441C64.8417 35.8441 68.2356 37.4883 70.6747 41.7836L64.8941 45.496C63.6212 43.2158 62.243 42.3144 60.1217 42.3144C57.9474 42.3144 56.5686 43.6932 56.5686 45.496C56.5686 47.7231 57.9474 48.6251 61.129 50.0039L62.9849 50.7992C69.2956 53.504 72.8485 56.2613 72.8485 62.4653C72.8485 69.1476 67.5987 72.8062 60.5458 72.8062C53.6521 72.8062 49.1975 69.5185 47.0235 65.2229" fill="black"/>
</svg>
